<svg width="437" height="220" viewBox="0 0 437 220" fill="none" xmlns="http://www.w3.org/2000/svg">
<path d="M21.76 23.64V32.52H37.312V38.76H21.76V51H13.984V17.4H39.376V23.64H21.76ZM45.6435 25.176H53.1315V51H45.6435V25.176ZM49.3875 21.576C48.0115 21.576 46.8915 21.176 46.0275 20.376C45.1635 19.576 44.7315 18.584 44.7315 17.4C44.7315 16.216 45.1635 15.224 46.0275 14.424C46.8915 13.624 48.0115 13.224 49.3875 13.224C50.7635 13.224 51.8835 13.608 52.7475 14.376C53.6115 15.144 54.0435 16.104 54.0435 17.256C54.0435 18.504 53.6115 19.544 52.7475 20.376C51.8835 21.176 50.7635 21.576 49.3875 21.576ZM77.777 24.792C80.977 24.792 83.553 25.752 85.505 27.672C87.489 29.592 88.481 32.44 88.481 36.216V51H80.993V37.368C80.993 35.32 80.545 33.8 79.649 32.808C78.753 31.784 77.457 31.272 75.761 31.272C73.873 31.272 72.369 31.864 71.249 33.048C70.129 34.2 69.569 35.928 69.569 38.232V51H62.081V25.176H69.233V28.2C70.225 27.112 71.457 26.28 72.929 25.704C74.401 25.096 76.017 24.792 77.777 24.792ZM123.854 15.384V51H116.702V48.024C114.846 50.264 112.158 51.384 108.638 51.384C106.206 51.384 103.998 50.84 102.014 49.752C100.062 48.664 98.5258 47.112 97.4058 45.096C96.2858 43.08 95.7258 40.744 95.7258 38.088C95.7258 35.432 96.2858 33.096 97.4058 31.08C98.5258 29.064 100.062 27.512 102.014 26.424C103.998 25.336 106.206 24.792 108.638 24.792C111.934 24.792 114.51 25.832 116.366 27.912V15.384H123.854ZM109.934 45.24C111.822 45.24 113.39 44.6 114.638 43.32C115.886 42.008 116.51 40.264 116.51 38.088C116.51 35.912 115.886 34.184 114.638 32.904C113.39 31.592 111.822 30.936 109.934 30.936C108.014 30.936 106.43 31.592 105.182 32.904C103.934 34.184 103.31 35.912 103.31 38.088C103.31 40.264 103.934 42.008 105.182 43.32C106.43 44.6 108.014 45.24 109.934 45.24ZM174.01 25.176L162.346 52.584C161.162 55.56 159.69 57.656 157.93 58.872C156.202 60.088 154.106 60.696 151.642 60.696C150.298 60.696 148.97 60.488 147.658 60.072C146.346 59.656 145.274 59.08 144.442 58.344L147.178 53.016C147.754 53.528 148.41 53.928 149.146 54.216C149.914 54.504 150.666 54.648 151.402 54.648C152.426 54.648 153.258 54.392 153.898 53.88C154.538 53.4 155.114 52.584 155.626 51.432L155.722 51.192L144.538 25.176H152.266L159.514 42.696L166.81 25.176H174.01ZM190.65 51.384C187.93 51.384 185.482 50.824 183.306 49.704C181.162 48.552 179.482 46.968 178.266 44.952C177.05 42.936 176.442 40.648 176.442 38.088C176.442 35.528 177.05 33.24 178.266 31.224C179.482 29.208 181.162 27.64 183.306 26.52C185.482 25.368 187.93 24.792 190.65 24.792C193.37 24.792 195.802 25.368 197.946 26.52C200.09 27.64 201.77 29.208 202.986 31.224C204.202 33.24 204.81 35.528 204.81 38.088C204.81 40.648 204.202 42.936 202.986 44.952C201.77 46.968 200.09 48.552 197.946 49.704C195.802 50.824 193.37 51.384 190.65 51.384ZM190.65 45.24C192.57 45.24 194.138 44.6 195.354 43.32C196.602 42.008 197.226 40.264 197.226 38.088C197.226 35.912 196.602 34.184 195.354 32.904C194.138 31.592 192.57 30.936 190.65 30.936C188.73 30.936 187.146 31.592 185.898 32.904C184.65 34.184 184.026 35.912 184.026 38.088C184.026 40.264 184.65 42.008 185.898 43.32C187.146 44.6 188.73 45.24 190.65 45.24ZM237.831 25.176V51H230.727V47.928C229.735 49.048 228.551 49.912 227.175 50.52C225.799 51.096 224.311 51.384 222.711 51.384C219.319 51.384 216.631 50.408 214.647 48.456C212.663 46.504 211.671 43.608 211.671 39.768V25.176H219.159V38.664C219.159 42.824 220.903 44.904 224.391 44.904C226.183 44.904 227.623 44.328 228.711 43.176C229.799 41.992 230.343 40.248 230.343 37.944V25.176H237.831ZM253.921 28.584C254.817 27.336 256.017 26.392 257.521 25.752C259.057 25.112 260.817 24.792 262.801 24.792V31.704C261.969 31.64 261.409 31.608 261.121 31.608C258.977 31.608 257.297 32.216 256.081 33.432C254.865 34.616 254.257 36.408 254.257 38.808V51H246.769V25.176H253.921V28.584ZM283.114 60.696C280.49 60.696 278.49 60.216 277.114 59.256L279.13 53.832C279.994 54.44 281.05 54.744 282.298 54.744C283.258 54.744 284.01 54.424 284.554 53.784C285.098 53.176 285.37 52.248 285.37 51V25.176H292.858V50.952C292.858 53.96 291.994 56.328 290.266 58.056C288.57 59.816 286.186 60.696 283.114 60.696ZM289.114 21.576C287.738 21.576 286.618 21.176 285.754 20.376C284.89 19.576 284.458 18.584 284.458 17.4C284.458 16.216 284.89 15.224 285.754 14.424C286.618 13.624 287.738 13.224 289.114 13.224C290.49 13.224 291.61 13.608 292.474 14.376C293.338 15.144 293.77 16.104 293.77 17.256C293.77 18.504 293.338 19.544 292.474 20.376C291.61 21.176 290.49 21.576 289.114 21.576ZM314.041 51.384C311.321 51.384 308.873 50.824 306.697 49.704C304.553 48.552 302.873 46.968 301.657 44.952C300.441 42.936 299.833 40.648 299.833 38.088C299.833 35.528 300.441 33.24 301.657 31.224C302.873 29.208 304.553 27.64 306.697 26.52C308.873 25.368 311.321 24.792 314.041 24.792C316.761 24.792 319.193 25.368 321.337 26.52C323.481 27.64 325.161 29.208 326.377 31.224C327.593 33.24 328.201 35.528 328.201 38.088C328.201 40.648 327.593 42.936 326.377 44.952C325.161 46.968 323.481 48.552 321.337 49.704C319.193 50.824 316.761 51.384 314.041 51.384ZM314.041 45.24C315.961 45.24 317.529 44.6 318.745 43.32C319.993 42.008 320.617 40.264 320.617 38.088C320.617 35.912 319.993 34.184 318.745 32.904C317.529 31.592 315.961 30.936 314.041 30.936C312.121 30.936 310.537 31.592 309.289 32.904C308.041 34.184 307.417 35.912 307.417 38.088C307.417 40.264 308.041 42.008 309.289 43.32C310.537 44.6 312.121 45.24 314.041 45.24ZM350.47 24.792C352.87 24.792 355.046 25.352 356.998 26.472C358.982 27.56 360.534 29.112 361.654 31.128C362.774 33.112 363.334 35.432 363.334 38.088C363.334 40.744 362.774 43.08 361.654 45.096C360.534 47.08 358.982 48.632 356.998 49.752C355.046 50.84 352.87 51.384 350.47 51.384C346.918 51.384 344.214 50.264 342.358 48.024V51H335.206V15.384H342.694V27.912C344.582 25.832 347.174 24.792 350.47 24.792ZM349.174 45.24C351.094 45.24 352.662 44.6 353.878 43.32C355.126 42.008 355.75 40.264 355.75 38.088C355.75 35.912 355.126 34.184 353.878 32.904C352.662 31.592 351.094 30.936 349.174 30.936C347.254 30.936 345.67 31.592 344.422 32.904C343.206 34.184 342.598 35.912 342.598 38.088C342.598 40.264 343.206 42.008 344.422 43.32C345.67 44.6 347.254 45.24 349.174 45.24Z" fill="#202020"/>
<mask id="mask0" mask-type="alpha" maskUnits="userSpaceOnUse" x="392" y="11" width="46" height="165">
<path d="M393.083 11.3423H436.304L429.1 117.534H400.287L393.083 11.3423ZM414.694 175.859C408.342 175.859 402.998 173.845 398.66 169.817C394.478 165.635 392.386 160.6 392.386 154.713C392.386 148.827 394.478 143.947 398.66 140.074C402.843 136.046 408.187 134.033 414.694 134.033C421.2 134.033 426.544 136.046 430.727 140.074C434.91 143.947 437.001 148.827 437.001 154.713C437.001 160.6 434.832 165.635 430.495 169.817C426.312 173.845 421.045 175.859 414.694 175.859Z" fill="#202020"/>
</mask>
<g mask="url(#mask0)">
<path d="M193.265 181.729C229.33 16.002 401.485 76.9978 484.223 -169.382L647.459 -34.1114L356.5 317L193.265 181.729Z" fill="#425DA4"/>
<path d="M148.15 343.891C184.215 178.164 356.37 239.16 439.109 -7.21962L602.345 128.051L311.386 479.162L148.15 343.891Z" fill="#6487DF"/>
</g>
<mask id="mask1" mask-type="alpha" maskUnits="userSpaceOnUse" x="11" y="78" width="361" height="98">
<path d="M96.7993 80.5381V174H79.0416L32.4445 117.255V174H11.0819V80.5381H28.973L75.4367 137.283V80.5381H96.7993ZM165.101 175.602C155.399 175.602 146.631 173.51 138.798 169.326C131.054 165.143 124.957 159.402 120.507 152.103C116.145 144.715 113.964 136.437 113.964 127.269C113.964 118.101 116.145 109.867 120.507 102.568C124.957 95.1804 131.054 89.3947 138.798 85.2112C146.631 81.0277 155.399 78.9359 165.101 78.9359C174.803 78.9359 183.526 81.0277 191.27 85.2112C199.014 89.3947 205.112 95.1804 209.562 102.568C214.013 109.867 216.238 118.101 216.238 127.269C216.238 136.437 214.013 144.715 209.562 152.103C205.112 159.402 199.014 165.143 191.27 169.326C183.526 173.51 174.803 175.602 165.101 175.602ZM165.101 157.176C170.62 157.176 175.604 155.93 180.055 153.438C184.505 150.857 187.977 147.296 190.469 142.757C193.051 138.217 194.341 133.055 194.341 127.269C194.341 121.483 193.051 116.32 190.469 111.781C187.977 107.241 184.505 103.725 180.055 101.233C175.604 98.6518 170.62 97.3612 165.101 97.3612C159.582 97.3612 154.598 98.6518 150.147 101.233C145.697 103.725 142.181 107.241 139.6 111.781C137.107 116.32 135.861 121.483 135.861 127.269C135.861 133.055 137.107 138.217 139.6 142.757C142.181 147.296 145.697 150.857 150.147 153.438C154.598 155.93 159.582 157.176 165.101 157.176ZM371.552 80.5381L340.976 174H317.745L297.183 110.713L275.954 174H252.856L222.147 80.5381H244.578L265.673 146.228L287.703 80.5381H307.731L329.093 146.762L350.857 80.5381H371.552Z" fill="#202020"/>
</mask>
<g mask="url(#mask1)">
<path d="M-12 78.5C210.5 78.5 143.5 78.5001 374 78.5V179.974L-12 179.974L-12 78.5Z" fill="#425DA4"/>
<path d="M-26 121C124.619 43.0241 187.5 214.5 430 121V174.5H-26V121Z" fill="#6487DF"/>
</g>
</svg>
