<svg width="504" height="871" viewBox="0 0 504 871" fill="none" xmlns="http://www.w3.org/2000/svg">
<path fill-rule="evenodd" clip-rule="evenodd" d="M0.000352698 190.5C0.00178771 77.1593 -0.00325372 255.34 -0.000886757 142C-0.000423479 119.867 -0.000599484 163.089 -0.0001679 109.018C5.97723 112.983 12.0985 116.62 18.3873 119.867C118.976 171.794 274.028 131.259 331.205 228.96C387.877 325.797 311.075 446.929 271.166 551.794C238.882 636.622 192.908 713.781 124.144 773.023C87.2774 804.786 44.7939 825.141 -0.000254217 841.538C-0.000273099 756.001 -0.000351323 721.501 -0.000340534 658.501C-0.000340534 551.794 -0.000351323 551.794 -0.00043764 446.501C-0.000513167 343.537 -0.000351323 434 -0.000470009 315C-0.00056172 220.414 -0.00044843 349 -0.000782907 249C-0.00110659 154.607 -0.000793697 283 0.000352698 190.5Z" fill="url(#paint0_linear)"/>
<defs>
<linearGradient id="paint0_linear" x1="-495.133" y1="126.867" x2="138.435" y2="760.435" gradientUnits="userSpaceOnUse">
<stop stop-color="#D0D9EE"/>
<stop offset="1" stop-color="#B7CBFD" stop-opacity="0"/>
</linearGradient>
</defs>
</svg>
