<svg width="121" height="142" viewBox="0 0 121 142" fill="none" xmlns="http://www.w3.org/2000/svg">
<path d="M0 142H103.25C107.958 142 112.472 140.13 115.801 136.801C119.13 133.473 121 128.958 121 124.25V17.75C121 13.0424 119.13 8.52759 115.801 5.19885C112.472 1.87012 107.958 0 103.25 0H0V8.875H103.25C105.604 8.875 107.861 9.81006 109.526 11.4745C111.19 13.1388 112.125 15.3962 112.125 17.75V124.25C112.125 126.604 111.19 128.861 109.526 130.526C107.861 132.19 105.604 133.125 103.25 133.125H0V142Z" fill="url(#paint0_linear)" fill-opacity="0.25"/>
<path d="M89.9425 36.7244C87.5784 36.7303 85.3118 37.5835 83.6328 39.0996H83.6447C83.5593 39.175 83.4791 39.2554 83.4048 39.34L41.7379 87.6965L16.6154 64.8242C15.7916 64.0189 14.7982 63.373 13.6945 62.9252C12.5908 62.4772 11.3992 62.2363 10.1911 62.2168C8.98291 62.1974 7.78284 62.3999 6.66241 62.8121C5.54199 63.2244 4.52423 63.8379 3.66974 64.6162C2.81531 65.3944 2.14172 66.3215 1.68921 67.342C1.23663 68.3625 1.0144 69.4557 1.03571 70.5562C1.05701 71.6567 1.32147 72.7419 1.81323 73.7473C2.30505 74.7527 3.0141 75.6576 3.89819 76.408L35.6312 105.323C36.4866 106.103 37.5057 106.717 38.6277 107.129C39.7496 107.542 40.9512 107.744 42.1608 107.723C43.3704 107.703 44.563 107.46 45.6674 107.01C46.7718 106.561 47.7653 105.913 48.5884 105.105L96.4819 50.574C98.1127 49.0149 99.0044 46.9338 98.9641 44.7808C98.9238 42.6276 97.9548 40.5754 96.2666 39.0679C94.5784 37.5603 92.3067 36.7185 89.9425 36.7244Z" fill="url(#paint1_linear)" fill-opacity="0.25"/>
<defs>
<linearGradient id="paint0_linear" x1="34.698" y1="41.6209" x2="72.1491" y2="110.744" gradientUnits="userSpaceOnUse">
<stop stop-color="#5C84EB"/>
<stop offset="1" stop-color="#7499F9" stop-opacity="0.46"/>
</linearGradient>
<linearGradient id="paint1_linear" x1="34.698" y1="41.6209" x2="72.1491" y2="110.744" gradientUnits="userSpaceOnUse">
<stop stop-color="#5C84EB"/>
<stop offset="1" stop-color="#7499F9" stop-opacity="0.46"/>
</linearGradient>
</defs>
</svg>
