<svg width="0" height="0" class="hidden">
  <symbol viewBox="0 0 112 140" fill="none" xmlns="http://www.w3.org/2000/svg" id="free">
    <path d="M0 31.083l13.917 13.76c0 14.341 10.325 24.55 30.974 30.626l27.655 26.979c-3.442 4.861-9.833 7.292-19.174 7.292-14.504 0-22.37-5.469-23.6-16.407h-16.96c.245 8.021 3.072 14.584 8.48 19.688 5.408 5.104 12.168 8.507 20.28 10.208V140h23.6v-16.771c8.111-1.458 14.503-4.375 19.173-8.75l17.699 17.5 9.956-9.844L0 11.395v19.688z"
      fill="url(#paint0_linear)" fill-opacity=".25"></path>
    <path d="M41.572 32.448c3.442-1.459 7.375-2.188 11.8-2.188 12.537 0 19.05 5.47 19.542 16.407h17.7c-.492-7.049-2.889-13.247-7.19-18.594-4.303-5.347-10.387-8.993-18.253-10.938V0H41.572v16.77c-4.179.973-8.112 2.431-11.8 4.376l11.8 11.302z" fill="url(#paint1_linear)"
      fill-opacity=".25"></path>
    <defs>
      <linearGradient id="paint0_linear" x1="29.969" y1="9.655" x2="116.746" y2="113.333" gradientUnits="userSpaceOnUse">
        <stop stop-color="#5C84EB"></stop>
        <stop offset="1" stop-color="#7499F9" stop-opacity=".46"></stop>
      </linearGradient>
      <linearGradient id="paint1_linear" x1="29.969" y1="9.655" x2="116.746" y2="113.333" gradientUnits="userSpaceOnUse">
        <stop stop-color="#5C84EB"></stop>
        <stop offset="1" stop-color="#7499F9" stop-opacity=".46"></stop>
      </linearGradient>
    </defs>
  </symbol>
  <symbol viewBox="0 0 90 140" fill="none" xmlns="http://www.w3.org/2000/svg" id="Support">
    <path d="M0 17.698A55.6 55.6 0 0 1 20 14c28.154 0 51.464 20.91 55.356 48H69a7 7 0 0 0-7 7v43c0 7.721-6.279 14-14 14H34v-7H6v21h42c15.442 0 28-12.558 28-28 7.721 0 14-5.831 14-12.999v-29C90 31.401 58.598 0 20 0A69.793 69.793 0 0 0 0 2.91v14.787z" fill="url(#paint0_linear)"
      fill-opacity=".25"></path>
    <defs>
      <linearGradient id="paint0_linear" x1="-1.875" y1="9.655" x2="82.668" y2="122.785" gradientUnits="userSpaceOnUse">
        <stop stop-color="#5C84EB"></stop>
        <stop offset="1" stop-color="#7499F9" stop-opacity=".46"></stop>
      </linearGradient>
    </defs>
  </symbol>
  <symbol viewBox="0 0 115 140" fill="none" xmlns="http://www.w3.org/2000/svg" id="privacy">
    <path fill-rule="evenodd" clip-rule="evenodd" d="M0 139.985c15.42-.471 27.861-12.229 29.068-27.098 2.618-1.768 9.471-5.084 17.864.147C48.318 128.138 61.1 140 76.962 140c16.71 0 30.338-13.188 30.338-29.471 0-16.282-13.629-29.47-30.338-29.47-14.322 0-26.334 9.799-29.414 22.84-7.315-3.021-14.014-2.211-19.096-.074C25.366 91.007 13.822 81.497 0 81.073v8.405c11.56.488 20.675 9.723 20.675 21.051 0 11.329-9.115 20.564-20.675 21.052v8.404zm55.325-29.456c0 11.641 9.625 21.072 21.637 21.072 11.935 0 21.714-9.431 21.714-21.072 0-11.64-9.702-21.071-21.714-21.071-12.012 0-21.637 9.43-21.637 21.071z"
      fill="url(#paint0_linear)" fill-opacity=".25"></path>
    <path d="M0 73.691h115V62.64H0v11.05z" fill="url(#paint1_linear)" fill-opacity=".25"></path>
    <path d="M0 51.588h84.2L65.412 5.025l-.231-.368C63.487 1.047 59.175-.87 55.094.383L38 5.835 20.829.383 20.444.31c-4.081-1.105-8.393.957-9.933 4.715L0 31.182v20.406z" fill="url(#paint2_linear)" fill-opacity=".25"></path>
    <defs>
      <linearGradient id="paint0_linear" x1="13.938" y1="9.655" x2="95.892" y2="130.287" gradientUnits="userSpaceOnUse">
        <stop stop-color="#5C84EB"></stop>
        <stop offset="1" stop-color="#7499F9" stop-opacity=".46"></stop>
      </linearGradient>
      <linearGradient id="paint1_linear" x1="13.938" y1="9.655" x2="95.892" y2="130.287" gradientUnits="userSpaceOnUse">
        <stop stop-color="#5C84EB"></stop>
        <stop offset="1" stop-color="#7499F9" stop-opacity=".46"></stop>
      </linearGradient>
      <linearGradient id="paint2_linear" x1="13.938" y1="9.655" x2="95.892" y2="130.287" gradientUnits="userSpaceOnUse">
        <stop stop-color="#5C84EB"></stop>
        <stop offset="1" stop-color="#7499F9" stop-opacity=".46"></stop>
      </linearGradient>
    </defs>
  </symbol>
  <symbol viewBox="0 0 121 142" fill="none" xmlns="http://www.w3.org/2000/svg" id="Simple">
    <path d="M0 142h103.25A17.749 17.749 0 0 0 121 124.25V17.75A17.75 17.75 0 0 0 103.25 0H0v8.875h103.25a8.877 8.877 0 0 1 8.875 8.875v106.5a8.878 8.878 0 0 1-2.599 6.276 8.878 8.878 0 0 1-6.276 2.599H0V142z" fill="url(#paint0_linear)" fill-opacity=".25"></path>
    <path d="M89.942 36.724c-2.364.006-4.63.86-6.31 2.376h.013a2.68 2.68 0 0 0-.24.24L41.738 87.696 16.615 64.825a9.03 9.03 0 0 0-2.92-1.899 9.746 9.746 0 0 0-3.504-.708 9.78 9.78 0 0 0-3.529.595 9.114 9.114 0 0 0-2.992 1.804 8.18 8.18 0 0 0-1.98 2.726 7.556 7.556 0 0 0-.654 3.214c.021 1.1.285 2.186.777 3.191a8.26 8.26 0 0 0 2.085 2.661l31.733 28.915a9.095 9.095 0 0 0 2.997 1.806 9.751 9.751 0 0 0 3.533.594 9.732 9.732 0 0 0 3.506-.713 9.006 9.006 0 0 0 2.921-1.905l47.894-54.531c1.63-1.56 2.522-3.64 2.482-5.793-.04-2.153-1.01-4.206-2.697-5.713-1.689-1.508-3.96-2.35-6.325-2.344z"
      fill="url(#paint1_linear)" fill-opacity=".25"></path>
    <defs>
      <linearGradient id="paint0_linear" x1="34.698" y1="41.621" x2="72.149" y2="110.744" gradientUnits="userSpaceOnUse">
        <stop stop-color="#5C84EB"></stop>
        <stop offset="1" stop-color="#7499F9" stop-opacity=".46"></stop>
      </linearGradient>
      <linearGradient id="paint1_linear" x1="34.698" y1="41.621" x2="72.149" y2="110.744" gradientUnits="userSpaceOnUse">
        <stop stop-color="#5C84EB"></stop>
        <stop offset="1" stop-color="#7499F9" stop-opacity=".46"></stop>
      </linearGradient>
    </defs>
  </symbol>
</svg>