<svg width="0" height="0" class="hidden">
  <symbol viewBox="0 0 181 60" fill="none" xmlns="http://www.w3.org/2000/svg" id="Vector (10)">
    <path d="M146.831 56.9V3.1h12.419v42.869H181v10.91h-34.169v.021zm-99.44-33.528L77.68 0c2.856 2.325 5.691 4.67 8.547 7.005L57.494 28.827l6.21 5.456 28.732-22.597c2.856 2.325 5.692 4.67 8.548 7.016a3013.496 3013.496 0 0 1-28.732 22.596l6.2 5.466 28.762-23.402-.01-20.252h12.429v42.87h22.522v10.91h-34.169V36.63C97.874 44.408 87.791 52.218 77.689 60L47.392 36.628c-1.464 7.434-6.637 13.868-13.334 17.274a26.867 26.867 0 0 1-9.3 2.815c-1.86.224-3.73.173-5.6.173H0V3.11h22.095a25.803 25.803 0 0 1 15.886 5.68c4.614 3.67 7.907 8.892 9.421 14.582h-.01zm-35.723-9.35v32.732l9.685-.01a13.957 13.957 0 0 0 5.852-1.5 14.004 14.004 0 0 0 4.678-3.833 17.792 17.792 0 0 0 1.85-19.262c-1-1.94-2.403-3.64-4.114-4.988a15.163 15.163 0 0 0-5.806-2.824c-1.687-.408-3.435-.306-5.153-.326h-6.992v.01z"
      fill="#A4BBF8"></path>
  </symbol>
  <symbol viewBox="0 0 130 60" fill="none" xmlns="http://www.w3.org/2000/svg" id="Vector (9)">
    <path d="M64.464 28.157l4.344-16.937 4.322 16.938h-8.666zm15.54-26.934H57.525L44.417 46.045l24.39-15.016L94.24 47.28 80.004 1.223zM68.808 34.916L28.134 60h79.928L68.808 34.916zM130 1.165v11.443h-11.191V59.91h-4.777l-13.195-8.427V12.608H89.695V1.165H130zM37.223 50.094c2.969-1.892 3.478-4.23 3.478-6.33v-8.807H24.559v11.956c.002.82-.424 1.609-1.184 2.19-.76.582-1.791.91-2.867.912-2.243 0-3.911-1.388-3.911-3.098V13.034c0-1.71 1.668-3.099 3.91-3.099 1.077.001 2.109.328 2.87.91.76.58 1.188 1.368 1.188 2.189v12.033h16.114v-12.48C40.68 5.69 34.764.012 20.367 0 5.59 0 0 5.7 0 12.6v35.374c0 6.837 7.117 12.01 16.223 12.01h4.994l16.006-9.89z"
      fill="#A4BBF8"></path>
  </symbol>
  <symbol viewBox="0 0 114 60" fill="none" xmlns="http://www.w3.org/2000/svg" id="Vector (8)">
    <path d="M77.572 59.272v-5.268l-.104.047a9.779 9.779 0 0 1-3.805.963 5.64 5.64 0 0 1-3.828-1.124 4.923 4.923 0 0 1-1.672-2.362 5.73 5.73 0 0 1-.11-3.163 4.853 4.853 0 0 1 1.696-2.699 5.066 5.066 0 0 1 2.67-1.147 8.799 8.799 0 0 1 5.04.939l.113.061v-5.297l-.242-.066a13.614 13.614 0 0 0-4.802-.627c-1.48.037-2.94.37-4.29.977a9.82 9.82 0 0 0-3.51 2.708 10.522 10.522 0 0 0-.19 12.829 10.033 10.033 0 0 0 5.582 3.585 13.05 13.05 0 0 0 7.063-.246l.39-.11zm-52.226 0v-5.268l-.105.047a9.779 9.779 0 0 1-3.804.963 5.625 5.625 0 0 1-3.829-1.124 4.886 4.886 0 0 1-1.667-2.362 5.692 5.692 0 0 1-.114-3.163 4.827 4.827 0 0 1 1.696-2.699 5.066 5.066 0 0 1 2.67-1.147 8.8 8.8 0 0 1 5.039.939l.114.061v-5.297l-.242-.066a13.613 13.613 0 0 0-4.802-.627c-1.481.038-2.94.37-4.29.977a9.877 9.877 0 0 0-3.515 2.708 10.536 10.536 0 0 0-.194 12.829 10.024 10.024 0 0 0 5.585 3.585 13.05 13.05 0 0 0 7.064-.246l.394-.11zM43.985 54.9l-.019 4.538.332.057c1.045.195 2.095.328 3.154.403.927.09 1.858.105 2.789.057a11.973 11.973 0 0 0 2.617-.493 7.217 7.217 0 0 0 2.712-1.446 5.5 5.5 0 0 0 1.582-2.267 6.203 6.203 0 0 0-.033-4.553 5.064 5.064 0 0 0-1.416-1.963 5.991 5.991 0 0 0-2.08-1.21l-3.43-1.27a1.842 1.842 0 0 1-.935-.892 1.16 1.16 0 0 1 .037-1.039c.177-.288.43-.521.732-.673a3.796 3.796 0 0 1 1.22-.351 7.034 7.034 0 0 1 2.186.023c.855.095 1.7.242 2.532.456l.18.038v-4.188l-.328-.071a22.586 22.586 0 0 0-2.579-.46 13.53 13.53 0 0 0-3.392-.014 7.354 7.354 0 0 0-3.9 1.565 5.19 5.19 0 0 0-1.666 2.295 6.29 6.29 0 0 0 0 4.264 4.799 4.799 0 0 0 1.197 1.806c.46.441.983.82 1.553 1.12.745.398 1.539.706 2.36.924.271.081.542.166.808.257l.404.146.114.048a3 3 0 0 1 1.073.664c.214.199.38.446.48.716.066.25.067.513.005.764a1.608 1.608 0 0 1-.789.938 4.07 4.07 0 0 1-1.306.408c-.67.105-1.35.138-2.028.1a25.044 25.044 0 0 1-2.646-.351c-.456-.099-.91-.205-1.363-.318l-.157-.028zm-11.756 4.719h4.987V39.857H32.23v19.762zm57.77-13.924a5.204 5.204 0 0 1 7.319.749 5.186 5.186 0 0 1 .55 5.746 5.19 5.19 0 0 1-1.296 1.562l-.08.066a5.212 5.212 0 0 1-7.237-.882 5.192 5.192 0 0 1 .743-7.241zm-7.245 4.05a10.386 10.386 0 0 0 3.957 7.997 10.425 10.425 0 0 0 8.707 1.995 10.163 10.163 0 0 0 5.334-2.833 10.138 10.138 0 0 0 2.023-11.34 10.152 10.152 0 0 0-4.027-4.498 10.495 10.495 0 0 0-14.465 3.457 10.455 10.455 0 0 0-1.529 5.222zm26.311-25.77a2.47 2.47 0 0 0 4.935 0v-5.478a2.472 2.472 0 0 0-4.935 0v5.477zm-13.51 0a2.473 2.473 0 0 0 2.473 2.287 2.482 2.482 0 0 0 2.473-2.288V11.696a2.471 2.471 0 0 0-2.47-2.318 2.477 2.477 0 0 0-2.47 2.318v12.278h-.005zM81.848 28.92a2.47 2.47 0 0 0 2.468 2.283 2.477 2.477 0 0 0 2.468-2.283V2.358A2.464 2.464 0 0 0 84.314 0a2.472 2.472 0 0 0-2.468 2.358v26.563zm-13.48-4.947a2.47 2.47 0 0 0 2.47 2.318 2.477 2.477 0 0 0 2.47-2.318V11.696a2.464 2.464 0 0 0-2.468-2.358 2.472 2.472 0 0 0-2.468 2.358v12.278h-.004zm-13.77 0a2.474 2.474 0 0 0 2.467 2.234 2.481 2.481 0 0 0 2.468-2.234v-5.477a2.464 2.464 0 0 0-2.468-2.358 2.472 2.472 0 0 0-2.468 2.358v5.477zm-13.633 0a2.464 2.464 0 0 0 2.468 2.358 2.472 2.472 0 0 0 2.467-2.358V11.696a2.465 2.465 0 0 0-2.467-2.358 2.472 2.472 0 0 0-2.468 2.358v12.278zM27.252 28.92a2.464 2.464 0 0 0 2.467 2.358 2.472 2.472 0 0 0 2.468-2.358V2.358A2.464 2.464 0 0 0 29.718 0a2.472 2.472 0 0 0-2.467 2.358v26.563zm-13.59-4.947a2.474 2.474 0 0 0 2.47 2.26 2.482 2.482 0 0 0 2.47-2.26V11.696a2.465 2.465 0 0 0-2.468-2.358 2.472 2.472 0 0 0-2.467 2.358v12.278h-.005zM0 23.974a2.47 2.47 0 0 0 2.468 2.284 2.477 2.477 0 0 0 2.467-2.284v-5.477a2.464 2.464 0 0 0-2.467-2.358A2.472 2.472 0 0 0 0 18.497v5.477z"
      fill="#A4BBF8"></path>
  </symbol>
  <symbol viewBox="0 0 250 60" fill="none" xmlns="http://www.w3.org/2000/svg" id="Vector (7)">
    <path d="M190.875 0l16.24 16.346h26.625V43.14L250 59.487V0h-59.125zM20.833 4.013L0 55.987h13.635l3.855-10.29h23.135l4.25 10.29h13.938L35.75 4.013H20.833zm43.844 0v51.921h12.896v-32.4L91.51 39.903h1.959l13.937-16.304v32.389h12.896V4.013h-11.24L92.479 23.346 75.906 4.013H64.677zm65.448 0v51.974h21.427c20.615 0 30-10.96 30-25.903 0-14.251-9.76-26.07-28.614-26.07h-22.813zm12.885 9.536h8.25c12.188 0 16.98 7.45 16.98 16.451 0 7.628-3.875 16.472-16.834 16.472h-8.396V13.55zm-114.427 2.86l8.24 20.245H20.917l7.666-20.245zm178.511 3.217l-16.709 16.797V60h23.396l16.709-16.839h-23.396V19.626z"
      fill="#A4BBF8"></path>
  </symbol>
  <symbol viewBox="0 0 83 60" fill="none" xmlns="http://www.w3.org/2000/svg" id="Vector (6)">
    <path d="M43.478 27.768l.093-20.379h4.635c2.102 4.54 3.451 10.54 4.51 20.379h-9.238zm-7.404 32.225h7.684l.087-24.809h9.21c.722 4.38.898 17.895.943 24.81h7.453c.706-30.629-1.48-47.942-7.518-59.994H35.372l.702 59.993zm30.686 0h8.03L76.495 7.56H83L82.952 0H60.389v7.57h6.557l-.186 52.423zM30.959.007h-9.483L22.493 60h8.3L30.959.007zM9.517 35.119h6.744v-7.755H9.517l.025-19.52h8.801l-.048-7.84H0l1.653 59.993h8.04l-.176-24.878z"
      fill="#A4BBF8"></path>
  </symbol>
  <symbol viewBox="0 0 123 60" fill="none" xmlns="http://www.w3.org/2000/svg" id="Vector (5)">
    <path d="M85.254 0l-30.38 48.178H21.73l7.729-11.817H50.08l7.555-11.997H11.603L4.049 36.36h11.05L0 60h61.869l23.385-37.296 8.467 13.667h-7.18l-7.55 11.812h22.279L108.819 60H123L85.254 0zM26.517.55l-7.555 11.997 48.79-.18L75.308.55h-48.79z" fill="#A4BBF8"></path>
  </symbol>
  <symbol viewBox="0 0 127 60" fill="none" xmlns="http://www.w3.org/2000/svg" id="Vector (4)">
    <path d="M126.979 48.922c0 11.114-14.113 16.45-21.585 3.543l-12.303-21.56v18.017c0 11.114-14.108 16.45-21.574 3.543-4.107-7.185-8.21-14.372-12.308-21.56v16.988c0 7.711-4.498 11.885-11.531 11.885H29.263c-7.761 0-15.204-3.138-20.692-8.722C3.083 45.47 0 37.897 0 29.999c0-7.897 3.083-15.471 8.57-21.056C14.06 3.36 21.503.221 29.264.221h9.493v7.162h-9.493a21.896 21.896 0 0 0-8.614 1.621 22.203 22.203 0 0 0-7.33 4.88 22.65 22.65 0 0 0-4.91 7.384 22.972 22.972 0 0 0-1.725 8.74c0 3 .587 5.971 1.726 8.74a22.652 22.652 0 0 0 4.909 7.382 22.205 22.205 0 0 0 7.33 4.881 21.896 21.896 0 0 0 8.614 1.62H47.52a4.707 4.707 0 0 0 3.26-1.411 4.872 4.872 0 0 0 1.391-3.316V11.287a1.473 1.473 0 0 1 .26-.915 1.43 1.43 0 0 1 .762-.555c.746-.204 1.534.264 2.111 1.255l11.388 19.972L77.713 50.37c1.482 2.553 3.7 3 5.276 2.558a4.217 4.217 0 0 0 2.255-1.581 4.343 4.343 0 0 0 .825-2.657V11.287a1.473 1.473 0 0 1 .254-.916 1.43 1.43 0 0 1 .757-.56c.74-.204 1.518.265 2.09 1.255l10.557 18.508 11.864 20.812c1.159 1.998 2.772 2.709 4.18 2.709.368 0 .735-.05 1.09-.15a4.227 4.227 0 0 0 2.283-1.58 4.355 4.355 0 0 0 .839-2.675V.227H127l-.021 48.695zm-84.63-8.314v-29.53c0-11.115 14.113-16.451 21.58-3.539.545.932 12.308 21.55 12.308 21.55V11.077c0-11.114 14.108-16.45 21.574-3.538.545.932 12.303 21.55 12.303 21.55V.227h7.043V48.69c.018.328-.074.652-.26.92a1.427 1.427 0 0 1-.766.556c-.741.204-1.535-.264-2.106-1.26a7460.856 7460.856 0 0 1-11.854-20.797L91.615 9.618c-1.482-2.553-3.683-3-5.25-2.569a4.228 4.228 0 0 0-2.257 1.578c-.56.767-.852 1.7-.833 2.655v37.403c.017.327-.074.651-.26.92a1.44 1.44 0 0 1-.761.56c-.757.205-1.54-.263-2.112-1.26-.105-.172-5.656-9.907-11.022-19.326-3.797-6.66-7.597-13.32-11.399-19.977-1.476-2.563-3.688-3.005-5.265-2.574a4.233 4.233 0 0 0-2.259 1.577 4.36 4.36 0 0 0-.836 2.655v36.617a2.02 2.02 0 0 1-.575 1.293c-.34.345-.793.552-1.272.581H29.247c-5.153 0-10.094-2.083-13.738-5.79-3.643-3.708-5.69-8.737-5.69-13.98 0-5.244 2.047-10.273 5.69-13.98 3.644-3.708 8.585-5.79 13.738-5.79h9.499v7.15h-9.42c-3.288 0-6.443 1.33-8.768 3.696a12.733 12.733 0 0 0-3.633 8.924c0 3.346 1.307 6.556 3.633 8.923a12.293 12.293 0 0 0 8.768 3.696h11.081a1.897 1.897 0 0 0 1.384-.58 1.963 1.963 0 0 0 .558-1.412z"
      fill="#A4BBF8"></path>
  </symbol>
  <symbol viewBox="0 0 179 60" fill="none" xmlns="http://www.w3.org/2000/svg" id="Vector (3)">
    <path d="M151.061 25.657a6.01 6.01 0 0 0-4.451 1.912 6.1 6.1 0 0 0-1.627 4.584 6.299 6.299 0 0 0 3.751 5.978 6.233 6.233 0 0 0 2.417.524 6.062 6.062 0 0 0 4.438-1.928 6.152 6.152 0 0 0 1.64-4.574 6.304 6.304 0 0 0-1.726-4.552 6.224 6.224 0 0 0-4.442-1.944zm-48.554 0a6.01 6.01 0 0 0-4.45 1.912 6.081 6.081 0 0 0-1.628 4.584 6.324 6.324 0 0 0 1.726 4.553 6.254 6.254 0 0 0 4.442 1.949 6.062 6.062 0 0 0 4.439-1.928 6.135 6.135 0 0 0 1.639-4.574 6.304 6.304 0 0 0-1.726-4.552 6.224 6.224 0 0 0-4.442-1.944zm-52.29-.39a5.834 5.834 0 0 0-2.705.56c-.845.4-1.582.998-2.15 1.743a7.422 7.422 0 0 0-1.276 5.52l11.016-4.59a5.31 5.31 0 0 0-1.958-2.357 5.267 5.267 0 0 0-2.927-.876zM0 0v60h179V0H0zm37.336 43.703H16.61v-30h6.392v24.18h14.334v5.82zm13.552-4.658a9.583 9.583 0 0 0 6.593-2.445l3.983 3.082a15.06 15.06 0 0 1-10.673 4.41 11.826 11.826 0 0 1-4.813-.517 11.872 11.872 0 0 1-4.209-2.404 11.95 11.95 0 0 1-2.907-3.892 12.01 12.01 0 0 1 2.399-13.582 11.881 11.881 0 0 1 4.062-2.648 11.83 11.83 0 0 1 4.775-.799 11.451 11.451 0 0 1 4.951.855A11.509 11.509 0 0 1 59.167 24a12.568 12.568 0 0 1 2.76 6.45L45.801 37.2a6.953 6.953 0 0 0 5.087 1.845zm36.42 4.657h-6.303v-13.14a5.116 5.116 0 0 0-1.643-3.554 5.062 5.062 0 0 0-3.667-1.328 4.898 4.898 0 0 0-3.651 1.316 4.95 4.95 0 0 0-1.57 3.567v13.14h-6.288V20.61h6.31v3.308a9.543 9.543 0 0 1 3.307-2.71 9.49 9.49 0 0 1 4.151-.988 8.793 8.793 0 0 1 3.598.554 8.832 8.832 0 0 1 3.07 1.965 8.891 8.891 0 0 1 2.023 3.042 8.93 8.93 0 0 1 .632 3.604l.03 14.317zm14.797.39a11.84 11.84 0 0 1-6.46-2.253 11.939 11.939 0 0 1-4.155-5.461 12.01 12.01 0 0 1-.474-6.86 11.965 11.965 0 0 1 3.364-5.985 11.858 11.858 0 0 1 6.089-3.13 11.82 11.82 0 0 1 6.795.762 11.897 11.897 0 0 1 5.252 4.403 11.989 11.989 0 0 1 1.969 6.585 12.042 12.042 0 0 1-3.673 8.609 11.923 11.923 0 0 1-4.017 2.555 11.873 11.873 0 0 1-4.69.776zm20.883-.397l-9.45-23.085h7.205l5.698 15.75 5.698-15.75h7.205l-9.45 23.085h-6.906zm27.678.398a11.837 11.837 0 0 1-6.46-2.254 11.942 11.942 0 0 1-4.155-5.461 12.009 12.009 0 0 1-.474-6.86 11.963 11.963 0 0 1 3.365-5.985 11.854 11.854 0 0 1 6.088-3.13 11.82 11.82 0 0 1 6.795.762 11.891 11.891 0 0 1 5.252 4.403 11.998 11.998 0 0 1 1.97 6.585 12.052 12.052 0 0 1-3.676 8.611 11.925 11.925 0 0 1-4.02 2.555 11.877 11.877 0 0 1-4.693.773h.008zm14.916-3.136h-1.051v2.745h-.634v-2.744h-1.022v-.578h2.7l.007.578zm4.035 2.745h-.611V41.34l-1.022 1.597h-.097l-1.014-1.597v2.362h-.612V40.38h.671l1 1.575.999-1.575h.657l.029 3.322z"
      fill="#A4BBF8"></path>
  </symbol>
  <symbol viewBox="0 0 41 60" fill="none" xmlns="http://www.w3.org/2000/svg" id="Vector (2)">
    <path d="M0 0l11.71 4.215V46.4l16.493-9.737-8.084-3.888-5.104-13L41 29.12v13.588L11.718 60 .002 53.325V0H0z" fill="#A4BBF8"></path>
  </symbol>
</svg>